<?xml version="1.0" encoding="utf-8"?>
<!-- Generator: Adobe Illustrator 21.1.0, SVG Export Plug-In . SVG Version: 6.00 Build 0)  -->
<svg version="1.1" id="Calque_1" xmlns="http://www.w3.org/2000/svg" xmlns:xlink="http://www.w3.org/1999/xlink" x="0px" y="0px"
	 viewBox="0 0 171 154.9" style="enable-background:new 0 0 171 154.9;" xml:space="preserve">
<style type="text/css">
	.st0{fill:#E2EBFD;}
</style>
<path class="st0" d="M170.9,72.4c0.3,4.1-0.1,8.1-1.2,12.1c-0.8,2.9-2,5.8-3.4,8.5c-2.3,4.3-5,8.3-8.1,12c-2.9,3.6-6,7-9.3,10.2
	c-2.9,2.9-6,5.6-9.1,8.2c-4.2,3.4-8.6,6.5-13.1,9.5c-3.7,2.4-7.3,5-11.1,7.3c-4.3,2.7-8.7,5.3-13.3,7.5c-2.9,1.4-5.7,2.8-8.7,3.8
	c-3.6,1.2-7.3,2.3-11.2,2.8c-2.1,0.3-4.1,0.5-6.2,0.6c-2.2,0.1-4.4,0-6.6-0.3c-2.1-0.3-4.2-0.7-6.2-1.2c-3.1-0.8-6.1-1.9-9.1-3.3
	c-4.6-2.2-9-4.8-13.1-7.7c-3-2.2-5.8-4.5-8.6-6.9c-2.9-2.5-5.7-5.3-8.4-8.1c-3.9-4.1-7.6-8.3-11-12.8c-1.8-2.5-3.8-4.8-5.6-7.3
	c-2.7-3.8-5.3-7.8-6.5-12.4c-0.6-2-0.9-4.1-1-6.2C-0.1,86,0,83.4,0.5,80.8c0.4-2.1,1-4.1,1.7-6.1c1.7-5,4.2-9.6,6.5-14.3
	c2.3-4.7,4.3-9.4,6.3-14.2c2.4-5.5,4.7-11,7.9-16.1c3-4.8,6.5-9.1,10.8-12.8c3.2-2.7,6.2-5.7,9.9-7.9c3.3-2,6.8-3.7,10.5-5
	c3.1-1,6.3-2,9.5-2.5C66.1,1.5,68.5,1,71,0.7C76.3,0.1,81.7-0.1,87.2,0c4.8,0.1,9.6,0.5,14.4,1.1c3.2,0.4,6.4,1,9.5,1.7
	c1.8,0.4,3.5,0.9,5.2,1.4c2.7,0.8,5.3,1.7,7.9,2.8c5.5,2.2,10.5,5.2,15.2,8.9c2.1,1.7,4.1,3.4,6,5.3c2.4,2.4,4.6,5,6.5,7.8
	c2.7,3.8,5.3,7.7,7.7,11.7c1.1,1.9,2.1,3.8,3.1,5.7c2.4,4.3,4.3,8.9,5.8,13.6c1,3.2,1.7,6.5,2.1,9.9C170.9,70.7,171,71.6,170.9,72.4
	z"/>
</svg>
