<?xml version="1.0" encoding="UTF-8"?>
<svg width="22px" height="20px" viewBox="0 0 22 20" version="1.1" xmlns="http://www.w3.org/2000/svg" xmlns:xlink="http://www.w3.org/1999/xlink">
    <!-- Generator: Sketch 46.2 (44496) - http://www.bohemiancoding.com/sketch -->
    <title>Page 1</title>
    <desc>Created with Sketch.</desc>
    <defs></defs>
    <g id="Page-1" stroke="none" stroke-width="1" fill="none" fill-rule="evenodd">
        <g id="FICHE-PRODUIT--Copy" transform="translate(-1019.000000, -31.000000)" fill="#585858">
            <path d="M1039.26667,33.2133333 C1039.58667,33.2133333 1039.86667,33.3466667 1040.10667,33.6133333 C1040.34667,33.88 1040.44,34.1733333 1040.38667,34.4933333 L1039.26667,42.28 C1039.23111,42.5466667 1039.11111,42.7688867 1038.90667,42.9466667 C1038.70222,43.1244467 1038.45778,43.2133333 1038.17333,43.2133333 L1025.58667,43.2133333 L1025.77333,44.3333333 L1037.05333,44.3333333 C1037.35556,44.3333333 1037.61778,44.4444433 1037.84,44.6666667 C1038.06222,44.88889 1038.17333,45.15111 1038.17333,45.4533333 C1038.17333,45.7555567 1038.06222,46.0133333 1037.84,46.2266667 C1037.61778,46.44 1037.35556,46.5466667 1037.05333,46.5466667 L1024.84,46.5466667 C1024.48444,46.5466667 1024.15556,46.3422233 1023.85333,45.9333333 C1023.85333,45.8977767 1023.84,45.84889 1023.81333,45.7866667 C1023.78667,45.7244433 1023.76444,45.6755567 1023.74667,45.64 L1021.66667,33.2133333 L1020.12,33.2133333 C1019.81778,33.2133333 1019.55556,33.1066667 1019.33333,32.8933333 C1019.11111,32.68 1019,32.4222233 1019,32.12 C1019,31.8177767 1019.11111,31.5555567 1019.33333,31.3333333 C1019.55556,31.11111 1019.81778,31 1020.12,31 L1022.6,31 C1022.86667,31 1023.10667,31.0888867 1023.32,31.2666667 C1023.53333,31.4444467 1023.65778,31.6666667 1023.69333,31.9333333 L1023.93333,33.2133333 L1039.26667,33.2133333 Z M1037.98667,35.4533333 L1033.72,35.4533333 L1033.72,37.6666667 L1037.66667,37.6666667 L1037.98667,35.4533333 Z M1032.6,35.4533333 L1029.26667,35.4533333 L1029.26667,37.6666667 L1032.6,37.6666667 L1032.6,35.4533333 Z M1032.6,38.7866667 L1029.26667,38.7866667 L1029.26667,41 L1032.6,41 L1032.6,38.7866667 Z M1028.17333,35.4533333 L1024.28,35.4533333 L1024.68,37.6933333 L1024.84,37.6666667 L1028.17333,37.6666667 L1028.17333,35.4533333 Z M1024.84,38.7866667 L1025.21333,41 L1028.17333,41 L1028.17333,38.7866667 L1024.84,38.7866667 Z M1033.72,41 L1037.21333,41 L1037.50667,38.7866667 L1033.72,38.7866667 L1033.72,41 Z M1024.84,49.32 C1024.84,48.2177723 1025.39111,47.6666667 1026.49333,47.6666667 C1027.61334,47.6666667 1028.17333,48.2177723 1028.17333,49.32 C1028.17333,50.4400057 1027.61334,51 1026.49333,51 C1025.39111,51 1024.84,50.4400057 1024.84,49.32 Z M1034.84,49.32 C1034.84,48.2177723 1035.39111,47.6666667 1036.49333,47.6666667 C1037.61334,47.6666667 1038.17333,48.2177723 1038.17333,49.32 C1038.17333,50.4400057 1037.61334,51 1036.49333,51 C1035.39111,51 1034.84,50.4400057 1034.84,49.32 Z" id="Page-1"></path>
        </g>
    </g>
</svg>