<?xml version="1.0" encoding="UTF-8"?>
<svg width="23px" height="20px" viewBox="0 0 23 20" version="1.1" xmlns="http://www.w3.org/2000/svg" xmlns:xlink="http://www.w3.org/1999/xlink">
    <title>Cart</title>
    <defs></defs>
    <g id="Page-1" stroke="none" stroke-width="1" fill="none" fill-rule="evenodd">
        <g id="FICEH-CREATEUR" transform="translate(-1018.000000, -30.000000)" stroke="#000000">
            <path d="M1026.64043,37.6574468 L1032.35957,37.6574468 L1029.5,33.4574468 L1026.64043,37.6574468 Z M1034.45957,37.6574468 L1039.01702,37.6574468 C1039.28511,37.6574468 1039.51596,37.7468085 1039.70958,37.9255319 C1039.90319,38.1042553 1040,38.3276596 1040,38.5957447 C1039.70213,39.7872407 1039.25532,41.462754 1038.65957,43.6223419 C1038.06383,45.7819268 1037.69149,47.1446779 1037.54255,47.7106383 C1037.27447,48.6340472 1036.66383,49.0957447 1035.71064,49.0957447 L1023.28936,49.0957447 C1022.33617,49.0957447 1021.72553,48.6340472 1021.45745,47.7106383 L1019.04468,38.8638298 C1019.01489,38.8042563 1019,38.7148946 1019,38.5957447 C1019,38.3276596 1019.09681,38.1042553 1019.29043,37.9255319 C1019.48404,37.7468085 1019.71489,37.6574468 1019.98298,37.6574468 L1024.54043,37.6574468 L1028.69574,31.4021277 C1028.87447,31.1340426 1029.14255,31 1029.5,31 C1029.85745,31 1030.12553,31.1340426 1030.30426,31.4021277 L1034.45957,37.6574468 Z" id="Page-1"></path>
        </g>
    </g>
</svg>
