<?xml version="1.0" encoding="UTF-8"?>
<svg width="20px" height="18px" viewBox="0 0 20 18" version="1.1" xmlns="http://www.w3.org/2000/svg" xmlns:xlink="http://www.w3.org/1999/xlink">
    <!-- Generator: Sketch 46.2 (44496) - http://www.bohemiancoding.com/sketch -->
    <title>Page 1</title>
    <desc>Created with Sketch.</desc>
    <defs></defs>
    <g id="V2" stroke="none" stroke-width="1" fill="none" fill-rule="evenodd">
        <g id="iPhone-8" transform="translate(-26.000000, -35.000000)" fill="#7CA6F9">
            <path d="M27,37 L45,37 C45.270836,37 45.505208,36.901044 45.703124,36.703124 C45.901044,36.505208 46,36.270836 46,36 C46,35.729164 45.901044,35.494792 45.703124,35.296876 C45.505208,35.098956 45.270836,35 45,35 L27,35 C26.7291652,35 26.4947928,35.098956 26.296875,35.296876 C26.0989574,35.494792 26,35.729164 26,36 C26,36.270836 26.0989574,36.505208 26.296875,36.703124 C26.4947928,36.901044 26.7291652,37 27,37 Z M45,51 L27,51 C26.7291652,51 26.4947928,51.0989572 26.296875,51.2968752 C26.0989574,51.4947928 26,51.7291652 26,52 C26,52.2708348 26.0989574,52.5052072 26.296875,52.703125 C26.4947928,52.9010426 26.7291652,53 27,53 L45,53 C45.270836,53 45.505208,52.9010426 45.703124,52.703125 C45.901044,52.5052072 46,52.2708348 46,52 C46,51.7291652 45.901044,51.4947928 45.703124,51.2968752 C45.505208,51.0989572 45.270836,51 45,51 Z M45,43 L27,43 C26.7291652,43 26.4947928,43.098956 26.296875,43.296876 C26.0989574,43.494792 26,43.729164 26,44 C26,44.270836 26.0989574,44.505208 26.296875,44.703124 C26.4947928,44.901044 26.7291652,45 27,45 L45,45 C45.270836,45 45.505208,44.901044 45.703124,44.703124 C45.901044,44.505208 46,44.270836 46,44 C46,43.729164 45.901044,43.494792 45.703124,43.296876 C45.505208,43.098956 45.270836,43 45,43 Z" id="Page-1"></path>
        </g>
    </g>
</svg>