<svg xmlns="http://www.w3.org/2000/svg" viewBox="0 0 966.37 957.36"><defs><style>.cls-1{isolation:isolate;}.cls-2{mix-blend-mode:multiply;}.cls-3{fill:#80d1f1;}.cls-4{fill:#95b6fb;}</style></defs><title>home_bull</title><g class="cls-1"><g id="Calque_1" data-name="Calque 1"><g class="cls-2"><path class="cls-3" d="M16.83,427.14c-.22-39.74,12-71.49,29.86-101.28,26.16-43.6,62.93-77.24,103-107.56,35.58-26.9,71.58-53.2,110.36-75.44,32.78-18.8,68-31.57,104.1-42,46.73-13.53,93.47-27,141-37.72a566.6,566.6,0,0,1,91.17-13.29c30.76-1.81,60.47,1.09,89.61,10.44,29.76,9.55,55.31,26.4,78.32,47.16,34,30.71,62.31,66.36,88.24,104,35.1,50.9,66.24,104,88.13,162.06,11.17,29.64,18.48,60.3,25.37,91.19,5,22.27,7.91,44.8,11.91,67.18a169.32,169.32,0,0,1,3,28.17c.18,22.05,3.67,44,1.26,66.18-1.48,13.69-1.37,27.6-3.23,41.32-7,51.75-25.06,98.87-59.31,138.92-21.93,25.65-48.42,45.8-77.67,62.49-40.13,22.91-83.2,38.06-128.18,47.61a549.48,549.48,0,0,1-66.13,9.36c-20.24,1.77-40.32,5.53-60.58,6.78-15.49,1-31,2.41-46.43,3.53-36.24,2.64-72.5,3.18-108.76,2.52-25.2-.46-50.2-3.8-75.07-8.32C314.56,922.7,275.27,908,240.21,883c-35.51-25.3-62.28-58.67-85.64-95-25.93-40.32-46.22-83.57-65-127.52-24.05-56.24-45.18-113.56-61-172.71C22.86,466.49,15.34,445.48,16.83,427.14Z" transform="translate(-16.63 -34.59)"/></g><g class="cls-2"><path class="cls-4" d="M55,479.92c-.78-48.3,11.27-90.13,28.52-130.59C109.41,288.7,146.89,235.4,188.75,184.9c27.91-33.67,58.35-64.89,89.86-95.1,24.61-23.59,52.3-42.12,86-50.29,26.53-6.43,53.08-6.07,80-1.76C476.46,42.88,506.5,54.22,537,64,577.29,77,618.34,87.25,659,99c53.39,15.46,103.25,37.55,145.12,75.43,18.24,16.5,37.46,31.78,52.8,51.34,20.67,26.35,36.21,55.46,48.36,86.44C920,349.88,929.78,389,935.83,428.89c3.08,20.26,5.52,40.69,6.59,61.28,1.08,20.85,3.16,41.71,2.49,62.55-1,32.15-3.5,64.13-9.45,96-11.3,60.5-36.27,114.26-74.36,162.24-20,25.13-43.59,46.63-67.64,67.62-28.66,25-59,47.92-91.73,67.44-35.87,21.36-73.81,37.35-115.2,43.74a202.24,202.24,0,0,1-61.7-.33c-49.51-7.59-92.67-30-134.12-56.53-52-33.29-99.8-71.73-141.49-117.21C202,764.15,154.39,712.86,115.37,654.48,91.23,618.36,72,579.9,61.76,537.54,56.93,517.54,53.38,497.09,55,479.92Z" transform="translate(-16.63 -34.59)"/></g></g></g></svg>