<?xml version="1.0" encoding="UTF-8"?>
<svg width="1848px" height="1848px" viewBox="0 0 1848 1848" version="1.1" xmlns="http://www.w3.org/2000/svg" xmlns:xlink="http://www.w3.org/1999/xlink">
    <!-- Generator: Sketch 46.2 (44496) - http://www.bohemiancoding.com/sketch -->
    <title>Plan de travail 5</title>
    <desc>Created with Sketch.</desc>
    <defs></defs>
    <g id="Symbols" stroke="none" stroke-width="1" fill="none" fill-rule="evenodd">
        <g id="LOGOTYPE_HEADER_GREEN" fill-rule="nonzero">
            <g id="Plan-de-travail-5">
                <circle id="Oval" stroke="#FFFEF6" fill="#8EE3CA" cx="923.99" cy="923.99" r="923.5"></circle>
                <path d="M1375.9,1311.28 C1161.34,1555.82 804.44,1593.51 559.9,1378.95 C315.36,1164.39 291.06,792.22 505.62,547.69 L1375.9,1311.28 Z" id="Shape" fill="#0F0A00"></path>
                <path d="M1355.62,475.86 C1307.52,433.69 1253.62,398.26 1194.87,372.77 C1165.08,359.84 1134.68,348.66 1103.27,340.35 C1072.25656,332.318422 1040.69494,326.576299 1008.84,323.17 C947.84,316.32 886.25,319.43 825.95,330.44 C765.23,341.53 706.22,362.31 651.43,390.67 C595.08839,419.996314 543.562823,457.766217 498.64,502.67 C452.52,548.67 412.9,602.32 383.76,660.67 C355.86,716.53 336.22,776.49 327.63,838.39 C323.18,870.39 320.57,902.48 321.22,934.83 C321.992922,967.117074 325.259309,999.296172 330.99,1031.08 C341.81,1092.43 362.99,1151.96 391.6,1207.23 C421.44,1264.79 460.74,1317.92 506.19,1364.1 C517.203333,1375.29333 528.61,1386.07333 540.41,1396.44 C547.3,1402.51 556.32,1407.44 565.87,1406.98 C575.06,1406.57 585.04,1403.58 591.33,1396.44 L611.86,1373.08 L667.51,1309.76 L749.76,1216.18 L850.05,1102 L959.93,977 L1071.16,850.44 L1174.26,733.14 L1261.89,633.44 L1324.53,562.17 C1334.48,550.85 1344.46,539.57 1354.37,528.22 L1355.63,526.79 C1361.98,519.57 1366.17,511.18 1366.17,501.33 C1366.17,492.5 1362.25,481.95 1355.63,475.87 C1342.02,463.38 1317.99,460.76 1304.72,475.87 L1284.19,499.23 L1228.54,562.55 L1146.29,656.13 L1046,770.27 L936.12,895.27 L824.85,1021.84 L721.75,1139.14 L634.12,1238.84 L571.48,1310.11 C561.54,1321.42 551.48,1332.65 541.64,1344.06 L540.38,1345.49 L591.3,1345.49 C560.622161,1318.51084 532.563964,1288.69147 507.5,1256.43 L513.13,1263.72 C481.02542,1222.2162 454.377922,1176.76523 433.84,1128.48 L437.47,1137.08 C417.469105,1089.72238 403.804504,1039.93266 396.83,989 L398.12,998.57 C391.551455,949.481399 391.511105,899.739193 398,850.64 L396.71,860.21 C403.174712,812.349116 415.900301,765.545172 434.56,721 L430.93,729.6 C450.001297,684.607615 474.788577,642.259177 504.68,603.6 L499.05,610.89 C530.059188,570.866321 566.011832,534.930478 606.05,503.94 L598.76,509.57 C639.049842,478.535802 683.15699,452.802151 730,433 L721.4,436.63 C769.958377,416.27087 820.987483,402.398162 873.17,395.37 L863.6,396.66 C916.036276,389.693247 969.163724,389.693247 1021.6,396.66 L1012.03,395.37 C1063.61333,402.352873 1114.04906,416.115103 1162.03,436.3 L1153.43,432.67 C1199.6753,452.312865 1243.21853,477.789538 1283,508.48 L1275.71,502.85 C1285.62333,510.523333 1295.29,518.496667 1304.71,526.77 C1311.95,533.11 1320.3,537.31 1330.17,537.31 C1339,537.31 1349.55,533.39 1355.63,526.77 C1368.1,513.18 1370.74,489.12 1355.62,475.86 Z" id="Shape" fill="#FFFFFF"></path>
            </g>
        </g>
    </g>
</svg>