<?xml version="1.0" encoding="UTF-8"?>
<svg width="563px" height="138px" viewBox="0 0 563 138" version="1.1" xmlns="http://www.w3.org/2000/svg" xmlns:xlink="http://www.w3.org/1999/xlink">
    <!-- Generator: Sketch 46.2 (44496) - http://www.bohemiancoding.com/sketch -->
    <title>CAPSULE FULL B</title>
    <desc>Created with Sketch.</desc>
    <defs>
        <polygon id="path-1" points="0.0621903244 0.0509239437 69.6503114 0.0509239437 69.6503114 96.2544091 0.0621903244 96.2544091"></polygon>
        <polygon id="path-3" points="0 0.0742867606 9.75244219 0.0742867606 9.75244219 20.3427938 0 20.3427938"></polygon>
    </defs>
    <g id="V2" stroke="none" stroke-width="1" fill="none" fill-rule="evenodd">
        <g id="home" transform="translate(-359.000000, -56.000000)">
            <g id="CAPSULE-FULL-B" transform="translate(359.000000, 56.000000)">
                <path d="M152.876468,64.1335136 L134.684769,7.35526006 L134.249677,7.35526006 L116.174619,64.1335136 L152.876468,64.1335136 Z M154.788104,70.2443868 L114.200816,70.2443868 L106.305606,95.0532105 L99.4594634,95.0532105 L130.115571,1.31435865 L138.686848,1.31435865 L169.405123,95.0532105 L162.745481,95.0532105 L154.788104,70.2443868 Z" id="Fill-1" fill="#7CA6F9"></path>
                <path d="M244.969102,28.8365733 C244.969102,16.4360099 236.273569,6.92761555 222.394706,6.92761555 L193.650311,6.92761555 L193.650311,50.5589395 L222.394706,50.5589395 C236.273491,50.5589395 244.976873,41.4859254 244.969102,28.8365733 M252.188246,28.8365733 C252.188246,44.1992775 240.531931,56.3588268 223.016376,56.3588268 L193.658005,56.3588268 L193.658005,95.0532494 L186.998364,95.0532494 L186.998364,1.31431977 L223.024225,1.31431977 C240.531931,1.31431977 252.188246,13.5904888 252.188246,28.8365733" id="Fill-2" fill="#7CA6F9"></path>
                <g id="Group-6" stroke-width="1" transform="translate(263.665839, 0.027211)">
                    <mask id="mask-2" fill="white">
                        <use xlink:href="#path-1"></use>
                    </mask>
                    <g id="Clip-5"></g>
                    <path d="M0.0621903244,67.9313669 L6.48093429,66.3297894 C6.66743532,80.8295077 19.9866399,90.3379021 37.1370419,90.3379021 C50.0288483,90.3379021 63.4724646,85.0900148 62.9207324,70.5280993 C62.3690778,56.5181838 49.290615,53.5560429 33.8654252,49.8553105 C17.7020799,45.9679866 3.45798563,42.0184655 3.45798563,24.9220148 C3.45798563,7.52235279 18.32375,0.050916169 34.3627613,0.050916169 C50.8293263,0.050916169 65.5706012,7.82556406 68.0418177,23.6236486 L61.560829,25.4118176 C59.7735274,11.8372824 46.633053,5.97519786 34.1762603,5.97519786 C22.4577786,5.97519786 10.0010636,11.160888 10.0010636,24.6110288 C10.0010636,37.6957612 21.3543141,41.0233105 35.5361637,44.2964373 C52.2513967,48.1215641 69.6503114,51.8222965 69.6503114,70.8313105 C69.6503114,88.6663528 54.3495333,96.2544091 36.8960671,96.2544091 C15.5417762,96.2544869 1.17342566,84.9656981 0.0621903244,67.9313669" id="Fill-4" fill="#7CA6F9" mask="url(#mask-2)"></path>
                </g>
                <path d="M352.611298,65.3074543 L352.611298,1.31432755 L359.333106,1.31432755 L359.333106,64.3822712 C359.333106,81.167736 371.673258,90.4273416 387.82891,90.4273416 C403.98464,90.4273416 416.697717,81.0433416 416.697717,64.3822712 L416.697717,1.31432755 L423.357358,1.31432755 L423.357358,65.3074543 C423.357358,83.640074 408.002183,96.2894261 387.82891,96.2894261 C367.78782,96.2816515 352.611298,83.6322994 352.611298,65.3074543" id="Fill-7" fill="#7CA6F9"></path>
                <polygon id="Fill-9" fill="#7CA6F9" points="494.795041 89.1911882 494.795041 95.0532727 449.708415 95.0532727 449.708415 1.3143431 456.368056 1.3143431 456.368056 89.1911882"></polygon>
                <polygon id="Fill-11" fill="#7CA6F9" points="517.742423 7.17639651 517.742423 45.2566219 557.34281 45.2566219 557.34281 51.2431007 517.742423 51.2431007 517.742423 89.1989317 562.891216 89.1989317 562.891216 95.0610162 511.075011 95.0610162 511.075011 1.314312 562.891216 1.314312 562.891216 7.17639651"></polygon>
                <path d="M82.2780556,78.8509065 C65.6017547,97.8599206 37.8674966,100.790963 18.8677036,84.1143431 C-0.132089358,67.4377234 -2.02041234,38.5004839 14.6481177,19.4836952 L82.2780556,78.8509065 Z" id="Fill-13" fill="#0F0A00"></path>
                <path d="M80.7005443,13.9014669 C76.9627528,10.6205655 72.7742503,7.86834017 68.204975,5.88580496 C65.8892538,4.88287538 63.5269073,4.01211482 61.0868521,3.36681904 C58.6778804,2.74484721 56.2222835,2.29391763 53.7511447,2.02957961 C49.0109101,1.50090355 44.2240502,1.74191763 39.5382117,2.5971289 C34.8212897,3.46011482 30.2364726,5.07724158 25.9780323,7.27746693 C21.6030288,9.55543876 17.5932565,12.4942557 14.104133,15.9850726 C10.521759,19.5614106 7.44449188,23.7363965 5.17539596,28.2690162 C3.00732142,32.6150444 1.48422963,37.2720585 0.815934258,42.0845655 C0.466244817,44.5724528 0.264202029,47.0681148 0.318598164,49.5793261 C0.380765176,52.0905374 0.629433223,54.593974 1.08014406,57.0585374 C1.91939872,61.8243965 3.56682453,66.4580866 5.7892952,70.7574669 C8.10501638,75.2356641 11.1589708,79.3640021 14.6947196,82.9558895 C15.549516,83.82665 16.435396,84.666312 17.3523594,85.4748754 C17.8885499,85.9491289 18.5879287,86.3300866 19.3339329,86.2912134 C20.0488535,86.2601148 20.8259412,86.0268754 21.3155064,85.4748754 L22.9085361,83.6556078 L27.2369142,78.7342557 L33.6245747,71.4571852 L41.4187638,62.5785374 L49.958957,52.8602275 L58.6001717,43.0252979 L66.6119453,33.9056359 L73.4192331,26.154312 L78.2838018,20.6109881 C79.0531185,19.7324528 79.8302062,18.8539176 80.5995229,17.9676078 L80.7005443,17.8587627 C81.1901096,17.2989881 81.5164864,16.6459176 81.5164864,15.8762275 C81.5164864,15.1998331 81.2134222,14.3757205 80.7005443,13.9014669 C79.6437051,12.9296359 77.7786948,12.7274951 76.7451682,13.9014669 L75.1521385,15.7207345 L70.8237603,20.6420866 L64.4360999,27.9191571 L56.6419108,36.797805 L48.1017176,46.5161148 L39.4605029,56.3588968 L31.4409584,65.4707064 L24.6336706,73.2220303 L19.769102,78.7653543 C18.9997852,79.6439672 18.2149267,80.51465 17.4533808,81.4009599 L17.3523594,81.5098827 L21.3077355,81.5098827 C18.9220764,79.4107278 16.746231,77.093805 14.795741,74.5825937 L15.2309101,75.1502207 C12.7364588,71.9237419 10.6694056,68.3862771 9.06860507,64.6310444 L9.34835662,65.2997419 C7.79418133,61.614481 6.72957125,57.7427064 6.19338077,53.7854106 L6.29440217,54.5318545 C5.78152432,50.7144247 5.78152432,46.8504247 6.27886041,43.0330726 L6.17783902,43.7794388 C6.68294599,40.0553824 7.6698473,36.4168472 9.1230012,32.9571289 L8.84324965,33.6257486 C10.3274871,30.1271571 12.2546644,26.838481 14.5781565,23.8296923 L14.1429874,24.3972416 C16.5519591,21.2873824 19.3494746,18.4885092 22.4578252,16.0783683 L21.8905512,16.5215233 C25.0222145,14.1113824 28.449171,12.1132979 32.093712,10.5739176 L31.4254167,10.853805 C35.2020626,9.27555144 39.1652096,8.19487538 43.2216071,7.65065003 L42.475603,7.75172045 C46.5475423,7.2074951 50.6816485,7.2074951 54.7535878,7.75172045 L54.0075837,7.65065003 C58.0173559,8.19487538 61.9338777,9.26000214 65.6638984,10.830481 L64.995603,10.5505937 C68.5857479,12.0744247 71.9738501,14.0569599 75.058888,16.4360021 L74.491614,16.0006219 C75.2609308,16.5992697 76.0147058,17.2134669 76.7451682,17.8587627 C77.3046713,18.3485655 77.9574249,18.6751007 78.7267417,18.6751007 C79.4105788,18.6751007 80.2342917,18.3718895 80.7083152,17.8587627 C81.6719039,16.8014106 81.8739467,14.9354951 80.7005443,13.9014669" id="Fill-15" fill="#7CA6F9"></path>
                <g id="Group-19" stroke-width="1" transform="translate(0.000000, 110.427211)">
                    <mask id="mask-4" fill="white">
                        <use xlink:href="#path-3"></use>
                    </mask>
                    <g id="Clip-18"></g>
                    <polygon id="Fill-17" fill="#7CA6F9" mask="url(#mask-4)" points="9.75244219 19.0755262 9.75244219 20.3427938 -7.77087647e-06 20.3427938 -7.77087647e-06 0.0742867606 1.43760438 0.0742867606 1.43760438 19.0755262"></polygon>
                </g>
                <path d="M21.3388268,123.49295 L17.1814079,124.09152 C14.4616011,124.488105 13.0473016,125.226697 13.0473016,127.147035 C13.0473016,129.082844 14.531539,129.883633 16.6374465,129.883633 C20.4063216,129.891485 21.3543685,127.380274 21.3388268,123.49295 M22.7531263,121.238302 L22.7531263,130.770021 L21.4165355,130.770021 L21.3932229,128.165514 C20.3907798,130.303542 18.1683092,131.049908 16.1634231,131.049908 C13.6301173,131.049908 11.6019186,129.805964 11.6019186,127.178056 C11.6019186,124.511429 13.7078261,123.39188 17.3212836,122.917626 L21.3465977,122.412274 L21.3465977,121.012838 C21.3465977,118.835936 19.4815873,117.770732 17.2902001,117.770732 C15.1532091,117.770732 13.2338026,118.797063 13.2493444,121.176105 L11.9049827,120.763971 C12.0526294,117.988499 14.3294962,116.589063 17.3368254,116.589063 C20.383009,116.581288 22.7531263,118.011823 22.7531263,121.238302" id="Fill-20" fill="#7CA6F9"></path>
                <path d="M45.5606643,123.772806 C45.5606643,120.219792 43.9909472,117.73968 40.8359714,117.73968 C37.5955159,117.73968 35.8626104,120.437482 35.8626104,123.772806 C35.8626104,127.123757 37.5955159,129.806011 40.8359714,129.806011 C43.9909472,129.805933 45.5606643,127.34137 45.5606643,123.772806 M46.9516512,123.772806 C46.9516512,128.126609 44.8535145,131.034328 41.0846394,131.034328 C38.4580832,131.034328 36.896137,129.642666 35.9480901,127.380243 L35.9325483,130.76999 L34.5571032,130.76999 L34.5571032,110.493708 L35.9480901,110.493708 L35.9714027,120.118722 C36.8883661,117.95737 38.4269997,116.542384 41.0768685,116.542384 C44.9079106,116.542384 46.9516512,119.49675 46.9516512,123.772806" id="Fill-22" fill="#7CA6F9"></path>
                <path d="M60.7760248,123.772806 C60.7760248,120.087701 58.9187854,117.755307 55.9347688,117.755307 C52.9352105,117.755307 51.1090545,120.087701 51.1090545,123.772806 C51.1090545,127.481313 52.9352105,129.829257 55.9347688,129.829257 C58.9265562,129.837032 60.7837957,127.489088 60.7760248,123.772806 M49.7336094,123.772806 C49.7336094,119.411229 52.1192685,116.542384 55.9347688,116.542384 C59.7658109,116.542384 62.1203865,119.411229 62.1203865,123.772806 C62.1203865,128.173335 59.75804,131.034328 55.9347688,131.034328 C52.150352,131.034328 49.7336094,128.181032 49.7336094,123.772806" id="Fill-24" fill="#7CA6F9"></path>
                <path d="M76.4265623,116.82224 L76.4265623,130.769958 L75.0278045,130.769958 L75.0122628,128.740775 C74.1419246,130.210184 72.5877493,131.034296 70.6372593,131.034296 C67.9019108,131.034296 65.6328149,129.393846 65.6328149,126.20624 L65.6328149,116.82224 L67.0471144,116.82224 L67.0471144,125.895254 C67.0471144,128.670803 68.834416,129.829226 70.9170109,129.829226 C73.2793573,129.829226 75.0122628,128.375445 75.0122628,125.677564 L75.0122628,116.814465 L76.4265623,116.82224 Z" id="Fill-26" fill="#7CA6F9"></path>
                <path d="M82.1303778,127.419147 L82.1303778,117.957401 L78.8899223,117.957401 L78.8899223,116.822225 L82.1303778,116.822225 L82.1303778,112.048669 L83.5135938,112.048669 L83.5135938,116.822225 L87.3290942,116.822225 L87.3290942,117.957401 L83.5135938,117.957401 L83.5135938,127.310302 C83.5135938,128.764161 84.4072446,129.619373 85.9147947,129.619373 L87.3290942,129.619373 L87.3290942,130.770021 L85.7282936,130.770021 C83.6146152,130.770021 82.1303778,129.557176 82.1303778,127.419147" id="Fill-28" fill="#7CA6F9"></path>
                <path d="M90.4296894,130.769966 L91.843989,130.769966 L91.843989,116.822248 L90.4296894,116.822248 L90.4296894,130.769966 Z M89.8546446,111.395544 C89.8546446,110.742551 90.4840856,110.237199 91.1601518,110.237199 C91.8673016,110.237199 92.4656591,110.742551 92.4656591,111.395544 C92.4656591,112.033065 91.8673016,112.585065 91.1601518,112.585065 C90.4840856,112.57729 89.8546446,112.033065 89.8546446,111.395544 L89.8546446,111.395544 Z" id="Fill-30" fill="#7CA6F9"></path>
                <path d="M106.779614,123.772806 C106.779614,120.460806 104.968999,117.778553 101.883961,117.778553 C98.6124224,117.778553 97.0971014,120.087623 97.0971014,123.772806 C97.0971014,127.481313 98.6201932,129.806011 101.883961,129.806011 C104.968999,129.805933 106.779614,127.12368 106.779614,123.772806 L106.779614,123.772806 Z M108.085121,116.822271 L108.085121,137.984863 L106.66305,137.984863 L106.66305,127.496863 C105.753858,129.564919 104.191912,131.034328 101.705231,131.034328 C97.7187716,131.034328 95.7294272,128.181032 95.7294272,123.772806 C95.7294272,119.411229 97.7187716,116.542384 101.705231,116.542384 C104.199683,116.542384 105.761629,117.996243 106.678592,120.095398 L106.717447,116.822271 L108.085121,116.822271 Z" id="Fill-32" fill="#7CA6F9"></path>
                <path d="M123.463701,116.82224 L123.463701,130.769958 L122.064943,130.769958 L122.049401,128.740775 C121.179063,130.210184 119.624888,131.034296 117.674398,131.034296 C114.939049,131.034296 112.669953,129.393846 112.669953,126.20624 L112.669953,116.82224 L114.084253,116.82224 L114.084253,125.895254 C114.084253,128.670803 115.871555,129.829226 117.954149,129.829226 C120.316496,129.829226 122.049401,128.375445 122.049401,125.677564 L122.049401,116.814465 L123.463701,116.82224 Z" id="Fill-33" fill="#7CA6F9"></path>
                <path d="M128.654631,122.785411 L137.847578,122.785411 C137.738785,119.372418 136.246777,117.700869 133.449262,117.700869 C130.667288,117.708566 128.918841,119.481185 128.654631,122.785411 L128.654631,122.785411 Z M128.615776,123.912735 C128.615776,127.885657 130.519641,129.837016 133.441491,129.837016 C135.803837,129.837016 137.07049,128.42203 137.816494,126.276227 L139.067605,126.727157 C138.1351,129.316115 136.371111,131.034312 133.464803,131.034312 C129.610449,131.034312 127.286957,128.336509 127.286957,123.772791 C127.286957,119.263495 129.649303,116.550143 133.43372,116.550143 C137.140428,116.550143 139.207481,118.952509 139.207481,123.438481 L139.184168,123.90496 L128.615776,123.912735 Z" id="Fill-34" fill="#7CA6F9"></path>
                <path d="M155.759432,114.233298 L154.547176,114.233298 L157.694381,110.726932 L159.644871,110.726932 L155.759432,114.233298 Z M150.537403,122.785411 L159.730428,122.785411 C159.621558,119.372418 158.12955,117.700869 155.332034,117.700869 C152.557831,117.708566 150.809384,119.481185 150.537403,122.785411 L150.537403,122.785411 Z M150.498549,123.912735 C150.498549,127.885657 152.402414,129.837016 155.324263,129.837016 C157.68661,129.837016 158.95334,128.42203 159.699267,126.276227 L160.950456,126.727157 C160.01795,129.316115 158.253961,131.034312 155.347576,131.034312 C151.493299,131.034312 149.169729,128.336509 149.169729,123.772791 C149.169729,119.263495 151.532153,116.550143 155.31657,116.550143 C159.0232,116.550143 161.090331,118.952509 161.090331,123.438481 L161.067019,123.90496 L150.498549,123.912735 Z" id="Fill-35" fill="#7CA6F9"></path>
                <path d="M175.9482,123.772806 C175.9482,120.087701 174.401796,117.778553 171.145799,117.778553 C168.05299,117.778553 166.250147,120.460806 166.250147,123.772806 C166.250147,127.123757 168.05299,129.806011 171.145799,129.806011 C174.401796,129.805933 175.9482,127.489088 175.9482,123.772806 M177.308104,123.772806 C177.308104,128.173335 175.303218,131.034328 171.3323,131.034328 C168.822307,131.034328 167.260361,129.54937 166.358939,127.45799 L166.358939,137.984863 L164.944639,137.984863 L164.944639,116.822271 L166.320085,116.822271 L166.358939,120.118722 C167.268131,118.011715 168.814536,116.542384 171.3323,116.542384 C175.310989,116.542384 177.308104,119.411229 177.308104,123.772806" id="Fill-36" fill="#7CA6F9"></path>
                <path d="M191.99506,121.362666 L191.99506,130.76999 L190.580761,130.76999 L190.580761,121.681504 C190.580761,118.882631 188.809001,117.755307 186.765261,117.755307 C184.387372,117.755307 182.615613,119.240187 182.615613,121.891342 L182.615613,130.762215 L181.201313,130.762215 L181.201313,110.493708 L182.615613,110.493708 L182.615613,118.859307 C183.485951,117.374271 185.040126,116.534609 187.006158,116.534609 C189.757048,116.542384 191.99506,118.198384 191.99506,121.362666" id="Fill-37" fill="#7CA6F9"></path>
                <path d="M202.104978,114.233298 L200.892644,114.233298 L204.039849,110.726932 L205.990417,110.726932 L202.104978,114.233298 Z M196.89072,122.785411 L206.083667,122.785411 C205.974875,119.372418 204.482867,117.700869 201.685351,117.700869 C198.903377,117.708566 197.15493,119.481185 196.89072,122.785411 L196.89072,122.785411 Z M196.851866,123.912735 C196.851866,127.885657 198.755731,129.837016 201.67758,129.837016 C204.039927,129.837016 205.30658,128.42203 206.052584,126.276227 L207.303695,126.727157 C206.37119,129.316115 204.607201,131.034312 201.700893,131.034312 C197.846538,131.034312 195.523046,128.336509 195.523046,123.772791 C195.523046,119.263495 197.885393,116.550143 201.669809,116.550143 C205.376517,116.550143 207.443571,118.952509 207.443571,123.438481 L207.420258,123.90496 L196.851866,123.912735 Z" id="Fill-38" fill="#7CA6F9"></path>
                <path d="M230.157842,121.144991 L230.157842,130.770005 L228.782397,130.770005 L228.782397,121.417104 C228.782397,118.882491 227.259306,117.763019 225.316586,117.763019 C223.117351,117.763019 221.462232,119.06916 221.462232,121.541498 L221.462232,130.77778 L220.063474,130.77778 L220.063474,121.580371 C220.063474,118.95254 218.571388,117.763019 216.543267,117.763019 C214.367422,117.763019 212.67337,119.06916 212.67337,121.525871 L212.67337,130.770005 L211.282384,130.770005 L211.282384,116.822209 L212.67337,116.822209 L212.67337,118.835921 C213.473771,117.382061 214.95793,116.542399 216.822941,116.542399 C218.633555,116.542399 220.27321,117.397611 221.027063,119.061308 C221.827463,117.475357 223.428186,116.542399 225.417608,116.542399 C228.020851,116.542399 230.157842,118.175075 230.157842,121.144991" id="Fill-39" fill="#7CA6F9"></path>
                <path d="M239.055496,114.233298 L235.177829,110.726932 L237.128319,110.726932 L240.291065,114.233298 L239.055496,114.233298 Z M235.076807,122.785411 L244.269754,122.785411 C244.160962,119.372418 242.668954,117.700869 239.871438,117.700869 C237.089464,117.708566 235.341017,119.481185 235.076807,122.785411 L235.076807,122.785411 Z M235.037953,123.912735 C235.037953,127.885657 236.941818,129.837016 239.863667,129.837016 C242.226014,129.837016 243.492667,128.42203 244.238671,126.276227 L245.489782,126.727157 C244.557277,129.316115 242.793288,131.034312 239.88698,131.034312 C236.032625,131.034312 233.709133,128.336509 233.709133,123.772791 C233.709133,119.263495 236.071479,116.550143 239.855896,116.550143 C243.562604,116.550143 245.629658,118.952509 245.629658,123.438481 L245.606345,123.90496 L235.037953,123.912735 Z" id="Fill-40" fill="#7CA6F9"></path>
                <path d="M255.63076,116.674568 L255.63076,118.035132 C252.841015,118.035132 250.859442,119.52009 250.859442,122.785442 L250.859442,130.76223 L249.468455,130.76223 L249.468455,116.814512 L250.898296,116.814512 L250.898296,119.535639 C251.667613,117.693047 253.509311,116.705589 255.63076,116.674568" id="Fill-41" fill="#7CA6F9"></path>
                <path d="M258.420497,122.785411 L267.613444,122.785411 C267.504651,119.372418 266.012643,117.700869 263.215128,117.700869 C260.433154,117.708566 258.684707,119.481185 258.420497,122.785411 L258.420497,122.785411 Z M258.373872,123.912735 C258.373872,127.885657 260.277736,129.837016 263.199586,129.837016 C265.561932,129.837016 266.828585,128.42203 267.574589,126.276227 L268.8257,126.727157 C267.893195,129.316115 266.129284,131.034312 263.222899,131.034312 C259.368544,131.034312 257.045052,128.336509 257.045052,123.772791 C257.045052,119.263495 259.407398,116.550143 263.191815,116.550143 C266.898523,116.550143 268.965654,118.952509 268.965654,123.438481 L268.942264,123.90496 L258.373872,123.912735 Z" id="Fill-42" fill="#7CA6F9"></path>
                <path d="M290.0713,123.78055 C290.0713,120.445304 288.338395,117.747423 285.097939,117.747423 C281.950734,117.747423 280.38871,120.227536 280.38871,123.78055 C280.38871,127.341416 281.950734,129.813754 285.097939,129.813754 C288.330624,129.805902 290.063451,127.123649 290.0713,123.78055 L290.0713,123.78055 Z M291.376807,110.501451 L291.376807,130.769958 L290.001362,130.769958 L289.985743,127.380212 C289.037773,129.650409 287.491369,131.034296 284.849271,131.034296 C281.088167,131.034296 278.982259,128.126578 278.982259,123.772775 C278.982259,119.488944 281.033771,116.542353 284.849271,116.542353 C287.506911,116.542353 289.037773,117.957416 289.954737,120.118691 L289.97805,110.493754 L291.376807,110.501451 Z" id="Fill-43" fill="#7CA6F9"></path>
                <path d="M296.575539,122.785411 L305.768408,122.785411 C305.659616,119.372418 304.167608,117.700869 301.370092,117.700869 C298.588118,117.708566 296.839671,119.481185 296.575539,122.785411 L296.575539,122.785411 Z M296.536685,123.912735 C296.536685,127.885657 298.44055,129.837016 301.362399,129.837016 C303.724746,129.837016 304.991398,128.42203 305.737325,126.276227 L306.988514,126.727157 C306.056008,129.316115 304.291942,131.034312 301.385634,131.034312 C297.531279,131.034312 295.207787,128.336509 295.207787,123.772791 C295.207787,119.263495 297.570134,116.550143 301.354628,116.550143 C305.061259,116.550143 307.128312,118.952509 307.128312,123.438481 L307.105077,123.90496 L296.536685,123.912735 Z" id="Fill-44" fill="#7CA6F9"></path>
                <path d="M309.700503,126.688299 L311.075948,126.330666 C311.09149,128.453144 312.86325,129.88368 315.466493,129.88368 C317.32381,129.88368 319.305384,129.191736 319.227675,127.131454 C319.173124,125.24999 317.479228,124.822384 314.961386,124.223736 C312.614582,123.664039 310.252313,123.010891 310.252313,120.351961 C310.252313,117.72413 312.59904,116.58911 315.171122,116.58911 C318.023189,116.58911 320.362145,117.949673 320.463167,120.709673 L319.126576,121.137279 C319.149889,118.773708 317.20717,117.72413 315.202283,117.72413 C313.562629,117.72413 311.643222,118.431701 311.643222,120.33649 C311.643222,122.233426 313.500384,122.668884 315.513119,123.127511 C317.937632,123.671736 320.634126,124.262687 320.634126,127.131454 C320.634126,129.907004 318.209535,131.042102 315.513119,131.042102 C312.233886,131.034328 309.910317,129.378328 309.700503,126.688299" id="Fill-45" fill="#7CA6F9"></path>
                <path d="M330.588603,123.772806 C330.588603,119.39568 333.137529,116.542384 336.78984,116.542384 C339.727154,116.542384 342.035182,118.330553 342.415877,121.253898 L341.11037,121.642631 C340.854009,119.224637 339.058859,117.763004 336.78984,117.763004 C333.906768,117.763004 331.964048,120.095398 331.964048,123.780659 C331.964048,127.465764 333.914616,129.813708 336.78984,129.813708 C339.043395,129.813708 340.869551,128.344377 341.094828,125.918687 L342.415877,126.307419 C342.027333,129.246159 339.734925,131.018778 336.78984,131.018778 C333.137529,131.011004 330.588603,128.165482 330.588603,123.772806" id="Fill-46" fill="#7CA6F9"></path>
                <path d="M352.277166,116.674568 L352.277166,118.035132 C349.487499,118.035132 347.498077,119.52009 347.498077,122.785442 L347.498077,130.76223 L346.107168,130.76223 L346.107168,116.814512 L347.536932,116.814512 L347.536932,119.535639 C348.314019,117.693047 350.155717,116.705589 352.277166,116.674568" id="Fill-47" fill="#7CA6F9"></path>
                <path d="M360.273351,114.233298 L359.061095,114.233298 L362.2083,110.726932 L364.15879,110.726932 L360.273351,114.233298 Z M355.059093,122.785411 L364.25204,122.785411 C364.143326,119.372418 362.65124,117.700869 359.853724,117.700869 C357.079521,117.708566 355.331074,119.481185 355.059093,122.785411 L355.059093,122.785411 Z M355.020239,123.912735 C355.020239,127.885657 356.924104,129.837016 359.845953,129.837016 C362.2083,129.837016 363.47503,128.42203 364.221034,126.276227 L365.472068,126.727157 C364.539563,129.316115 362.775574,131.034312 359.869344,131.034312 C356.014911,131.034312 353.691497,128.336509 353.691497,123.772791 C353.691497,119.263495 356.053766,116.550143 359.838182,116.550143 C363.544968,116.550143 365.611944,118.952509 365.611944,123.438481 L365.588631,123.90496 L355.020239,123.912735 Z" id="Fill-48" fill="#7CA6F9"></path>
                <path d="M378.138628,123.49295 L373.981209,124.09152 C371.261402,124.488105 369.847102,125.226697 369.847102,127.147035 C369.847102,129.082844 371.323569,129.883633 373.437247,129.883633 C377.206122,129.891485 378.146398,127.380274 378.138628,123.49295 M379.552927,121.238302 L379.552927,130.770021 L378.216336,130.770021 L378.193024,128.165514 C377.190658,130.303542 374.96811,131.049908 372.963224,131.049908 C370.429996,131.049908 368.401719,129.805964 368.401719,127.178056 C368.401719,124.511429 370.507705,123.39188 374.121162,122.917626 L378.146398,122.412274 L378.146398,121.012838 C378.146398,118.835936 376.281388,117.770732 374.090001,117.770732 C371.95301,117.770732 370.033526,118.797063 370.049145,121.176105 L368.704783,120.763971 C368.85243,117.988499 371.129375,116.589063 374.136626,116.589063 C377.175039,116.581288 379.552927,118.011823 379.552927,121.238302" id="Fill-49" fill="#7CA6F9"></path>
                <path d="M384.976999,127.419147 L384.976999,117.957401 L381.736543,117.957401 L381.736543,116.822225 L384.976999,116.822225 L384.976999,112.048669 L386.367986,112.048669 L386.367986,116.822225 L390.183486,116.822225 L390.183486,117.957401 L386.367986,117.957401 L386.367986,127.310302 C386.367986,128.764161 387.261636,129.619373 388.769187,129.619373 L390.183486,129.619373 L390.183486,130.770021 L388.582685,130.770021 C386.461236,130.770021 384.976999,129.557176 384.976999,127.419147" id="Fill-50" fill="#7CA6F9"></path>
                <path d="M393.579375,122.785411 L402.772321,122.785411 C402.663451,119.372418 401.171521,117.700869 398.374005,117.700869 C395.591954,117.708566 393.843507,119.481185 393.579375,122.785411 L393.579375,122.785411 Z M393.54052,123.912735 C393.54052,127.885657 395.444385,129.837016 398.366312,129.837016 C400.728581,129.837016 401.995234,128.42203 402.74116,126.276227 L403.992349,126.727157 C403.059844,129.316115 401.295855,131.034312 398.389469,131.034312 C394.535192,131.034312 392.211623,128.336509 392.211623,123.772791 C392.211623,119.263495 394.574047,116.550143 398.358464,116.550143 C402.065172,116.550143 404.132225,118.952509 404.132225,123.438481 L404.108912,123.90496 L393.54052,123.912735 Z" id="Fill-51" fill="#7CA6F9"></path>
                <path d="M418.453919,116.82224 L418.453919,130.769958 L417.055161,130.769958 L417.03962,128.740775 C416.169281,130.210184 414.615106,131.034296 412.664616,131.034296 C409.929268,131.034296 407.660249,129.393846 407.660249,126.20624 L407.660249,116.82224 L409.074471,116.82224 L409.074471,125.895254 C409.074471,128.670803 410.861773,129.829226 412.944445,129.829226 C415.306714,129.829226 417.03962,128.375445 417.03962,125.677564 L417.03962,116.814465 L418.453919,116.82224 Z" id="Fill-52" fill="#7CA6F9"></path>
                <path d="M429.496381,116.674568 L429.496381,118.035132 C426.706637,118.035132 424.717292,119.52009 424.717292,122.785442 L424.717292,130.76223 L423.326305,130.76223 L423.326305,116.814512 L424.756147,116.814512 L424.756147,119.535639 C425.541005,117.693047 427.374854,116.705589 429.496381,116.674568" id="Fill-53" fill="#7CA6F9"></path>
                <path d="M430.708607,126.688299 L432.084052,126.330666 C432.099594,128.453144 433.871354,129.88368 436.474597,129.88368 C438.331837,129.88368 440.31341,129.191736 440.235701,127.131454 C440.181305,125.24999 438.487254,124.822384 435.96949,124.223736 C433.622685,123.664039 431.260339,123.010891 431.260339,120.351961 C431.260339,117.72413 433.607221,116.58911 436.179304,116.58911 C439.031216,116.58911 441.370172,117.949673 441.471271,120.709673 L440.13468,121.137279 C440.157993,118.773708 438.215273,117.72413 436.210387,117.72413 C434.570655,117.72413 432.651326,118.431701 432.651326,120.33649 C432.651326,122.233426 434.508565,122.668884 436.521222,123.127511 C438.945736,123.671736 441.642152,124.262687 441.642152,127.131454 C441.642152,129.907004 439.217717,131.042102 436.521222,131.042102 C433.249683,131.034328 430.926191,129.378328 430.708607,126.688299" id="Fill-54" fill="#7CA6F9"></path>
                <path d="M465.980646,125.179987 C465.980646,122.45886 464.21658,120.818409 460.455475,120.818409 L454.73611,120.818409 L454.73611,129.494916 L460.066931,129.494916 C464.23997,129.487142 465.980646,127.916663 465.980646,125.179987 M458.963467,111.784268 L454.736188,111.784268 L454.736188,119.566769 L460.43224,119.566769 C462.530377,119.566769 464.317679,117.92624 464.317679,115.640571 C464.309908,113.502543 462.802358,111.784268 458.963467,111.784268 M467.387175,125.33548 C467.387175,128.670803 465.149162,130.769958 460.222349,130.769958 L453.321888,130.769958 L453.321888,110.501451 L459.041176,110.501451 C463.400715,110.501451 465.74752,112.647332 465.74752,115.625022 C465.74752,117.677451 464.597352,119.216832 463.105422,119.978825 C465.708665,120.398578 467.387175,122.443388 467.387175,125.33548" id="Fill-55" fill="#7CA6F9"></path>
                <path d="M481.211564,123.772806 C481.211564,120.087701 479.354325,117.755307 476.37023,117.755307 C473.37075,117.755307 471.544594,120.087701 471.544594,123.772806 C471.544594,127.481313 473.37075,129.829257 476.37023,129.829257 C479.354325,129.837032 481.211564,127.489088 481.211564,123.772806 M470.169071,123.772806 C470.169071,119.411229 472.554808,116.542384 476.37023,116.542384 C480.201272,116.542384 482.555848,119.411229 482.555848,123.772806 C482.555848,128.173335 480.193502,131.034328 476.37023,131.034328 C472.578043,131.034328 470.169071,128.181032 470.169071,123.772806" id="Fill-56" fill="#7CA6F9"></path>
                <path d="M492.533669,116.674568 L492.533669,118.035132 C489.744002,118.035132 487.75458,119.52009 487.75458,122.785442 L487.75458,130.76223 L486.363671,130.76223 L486.363671,116.814512 L487.793434,116.814512 L487.793434,119.535639 C488.570522,117.693047 490.41222,116.705589 492.533669,116.674568" id="Fill-57" fill="#7CA6F9"></path>
                <path d="M505.083634,123.78055 C505.083634,120.445304 503.350807,117.747423 500.110273,117.747423 C496.963068,117.747423 495.401122,120.227536 495.401122,123.78055 C495.401122,127.341416 496.963068,129.813754 500.110273,129.813754 C503.350729,129.805902 505.083634,127.123649 505.083634,123.78055 L505.083634,123.78055 Z M506.389219,110.501451 L506.389219,130.769958 L505.013696,130.769958 L504.998155,127.380212 C504.05003,129.650409 502.503703,131.034296 499.861605,131.034296 C496.100501,131.034296 493.994594,128.126578 493.994594,123.772775 C493.994594,119.488944 496.046027,116.542353 499.861605,116.542353 C502.519245,116.542353 504.05003,117.957416 504.967071,120.118691 L504.990384,110.493754 L506.389219,110.501451 Z" id="Fill-58" fill="#7CA6F9"></path>
                <path d="M511.587874,122.785411 L520.78082,122.785411 C520.67195,119.372418 519.18002,117.700869 516.382504,117.700869 C513.608301,117.708566 511.859854,119.481185 511.587874,122.785411 L511.587874,122.785411 Z M511.549019,123.912735 C511.549019,127.885657 513.452884,129.837016 516.374811,129.837016 C518.73708,129.837016 520.003733,128.42203 520.749659,126.276227 L522.000848,126.727157 C521.068343,129.316115 519.304354,131.034312 516.397968,131.034312 C512.543691,131.034312 510.220122,128.336509 510.220122,123.772791 C510.220122,119.263495 512.582546,116.550143 516.366963,116.550143 C520.073671,116.550143 522.140724,118.952509 522.140724,123.438481 L522.117411,123.90496 L511.549019,123.912735 Z" id="Fill-59" fill="#7CA6F9"></path>
                <polygon id="Fill-60" fill="#7CA6F9" points="525.995086 130.769966 527.409386 130.769966 527.409386 110.501459 525.995086 110.501459"></polygon>
                <path d="M540.985084,123.49295 L536.827665,124.09152 C534.107858,124.488105 532.693636,125.226697 532.693636,127.147035 C532.693636,129.082844 534.170103,129.883633 536.283703,129.883633 C540.052578,129.891485 541.000625,127.380274 540.985084,123.49295 M542.399383,121.238302 L542.399383,130.770021 L541.062792,130.770021 L541.03948,128.165514 C540.037114,130.303542 537.814566,131.049908 535.80968,131.049908 C533.276452,131.049908 531.248175,129.805964 531.248175,127.178056 C531.248175,124.511429 533.354161,123.39188 536.967618,122.917626 L540.992855,122.412274 L540.992855,121.012838 C540.992855,118.835936 539.127844,117.770732 536.936457,117.770732 C534.799466,117.770732 532.879982,118.797063 532.895601,121.176105 L531.55124,120.763971 C531.698886,117.988499 533.975831,116.589063 536.983082,116.589063 C540.029266,116.581288 542.399383,118.011823 542.399383,121.238302" id="Fill-61" fill="#7CA6F9"></path>
                <path d="M546.999765,130.769966 L548.414065,130.769966 L548.414065,116.822248 L546.999765,116.822248 L546.999765,130.769966 Z M546.432491,111.395544 C546.432491,110.742551 547.06201,110.237199 547.737999,110.237199 C548.445148,110.237199 549.043506,110.742551 549.043506,111.395544 C549.043506,112.033065 548.445148,112.585065 547.737999,112.585065 C547.054161,112.57729 546.432491,112.033065 546.432491,111.395544 L546.432491,111.395544 Z" id="Fill-62" fill="#7CA6F9"></path>
                <path d="M552.035286,126.688299 L553.410731,126.330666 C553.426272,128.453144 555.198032,129.88368 557.801276,129.88368 C559.658593,129.88368 561.640167,129.191736 561.562458,127.131454 C561.507906,125.24999 559.814011,124.822384 557.296169,124.223736 C554.949364,123.664039 552.587095,123.010891 552.587095,120.351961 C552.587095,117.72413 554.933822,116.58911 557.505905,116.58911 C560.357972,116.58911 562.696928,117.949673 562.797949,120.709673 L561.461359,121.137279 C561.484671,118.773708 559.541952,117.72413 557.537066,117.72413 C555.897411,117.72413 553.978005,118.431701 553.978005,120.33649 C553.978005,122.233426 555.835166,122.668884 557.847901,123.127511 C560.272415,123.671736 562.968909,124.262687 562.968909,127.131454 C562.968909,129.907004 560.544318,131.042102 557.847901,131.042102 C554.568669,131.034328 552.245099,129.378328 552.035286,126.688299" id="Fill-63" fill="#7CA6F9"></path>
            </g>
        </g>
    </g>
</svg>
