<?xml version="1.0" encoding="UTF-8"?>
<svg width="20px" height="20px" viewBox="0 0 20 20" version="1.1" xmlns="http://www.w3.org/2000/svg" xmlns:xlink="http://www.w3.org/1999/xlink">
    <!-- Generator: Sketch 46.2 (44496) - http://www.bohemiancoding.com/sketch -->
    <title>Page 1</title>
    <desc>Created with Sketch.</desc>
    <defs></defs>
    <g id="Page-1" stroke="none" stroke-width="1" fill="none" fill-rule="evenodd">
        <g id="fiche-produit" transform="translate(-682.000000, -578.000000)" fill="#7CA6F9">
            <g id="quentité" transform="translate(682.000000, 572.000000)">
                <path d="M10,6 C8.62284019,6 7.32394967,6.25821446 6.10328638,6.77464638 C4.8826231,7.29108131 3.81847136,8.00312488 2.91079812,8.91079812 C2.00312548,9.81847136 1.29108252,10.8826231 0.774647887,12.1032864 C0.258213378,13.3239497 0,14.6228402 0,16 C0,17.3771598 0.258213378,18.6760503 0.774647887,19.8967136 C1.29108252,21.1173769 2.00312548,22.1815286 2.91079812,23.0892019 C3.81847136,23.9968745 4.8826231,24.7089175 6.10328638,25.2253521 C7.32394967,25.7417866 8.62284019,26 10,26 C11.3771598,26 12.6760503,25.7417866 13.8967136,25.2253521 C15.1173769,24.7089175 16.1815286,23.9968745 17.0892019,23.0892019 C17.9968751,22.1815286 18.7089187,21.1173769 19.2253536,19.8967136 C19.7417855,18.6760503 20,17.3771598 20,16 C20,14.6228402 19.7417855,13.3239497 19.2253536,12.1032864 C18.7089187,10.8826231 17.9968751,9.81847136 17.0892019,8.91079812 C16.1815286,8.00312488 15.1173769,7.29108131 13.8967136,6.77464638 C12.6760503,6.25821446 11.3771598,6 10,6 Z M10,25 C8.74489306,25 7.57398498,24.7627574 6.48724343,24.2882653 C5.40050482,23.8137733 4.44388049,23.1785754 3.61734694,22.3826531 C2.82142456,21.5561195 2.18622674,20.5994952 1.71173469,19.5127566 C1.23724264,18.426015 1,17.2551069 1,16 C1,14.7448931 1.23724264,13.573985 1.71173469,12.4872434 C2.18622674,11.4005048 2.82142456,10.4438805 3.61734694,9.61734694 C4.44388049,8.82142367 5.40050482,8.18622792 6.48724343,7.71173322 C7.57398498,7.23724147 8.74489306,7 10,7 C11.2551069,7 12.426015,7.23724147 13.5127566,7.71173322 C14.5994952,8.18622792 15.5561195,8.82142367 16.3826531,9.61734694 C17.1785763,10.4438805 17.8137721,11.4005048 18.2882668,12.4872434 C18.7627585,13.573985 19,14.7448931 19,16 C19,17.2551069 18.7627585,18.426015 18.2882668,19.5127566 C17.8137721,20.5994952 17.1785763,21.5561195 16.3826531,22.3826531 C15.5561195,23.1785754 14.5994952,23.8137733 13.5127566,24.2882653 C12.426015,24.7627574 11.2551069,25 10,25 Z M5,17 L15,17 L15,16 L5,16 L5,17 Z" id="Page-1"></path>
            </g>
        </g>
    </g>
</svg>
