<?xml version="1.0" encoding="UTF-8"?>
<svg width="20px" height="20px" viewBox="0 0 20 20" version="1.1" xmlns="http://www.w3.org/2000/svg" xmlns:xlink="http://www.w3.org/1999/xlink">
    <!-- Generator: Sketch 46.2 (44496) - http://www.bohemiancoding.com/sketch -->
    <title>Page 1</title>
    <desc>Created with Sketch.</desc>
    <defs></defs>
    <g id="Page-1" stroke="none" stroke-width="1" fill="none" fill-rule="evenodd">
        <g id="fiche-produit" transform="translate(-758.000000, -578.000000)" fill="#7CA6F9">
            <g id="quentité" transform="translate(682.000000, 572.000000)">
                <path d="M86,6 C84.6228402,6 83.3239497,6.25826206 82.1032864,6.77478918 C80.8826231,7.29131931 79.8184714,8.00349413 78.9107981,8.91133468 C78.0031255,9.81917524 77.2910825,10.8835231 76.7746479,12.1044114 C76.2582134,13.3252997 76,14.6244297 76,16.0018433 C76,17.379257 76.2582134,18.678387 76.7746479,19.8992753 C77.2910825,21.1201636 78.0031255,22.1845115 78.9107981,23.092352 C79.8184714,24.000192 80.8826231,24.7123662 82.1032864,25.228896 C83.3239497,25.7454257 84.6228402,26.0036867 86,26.0036867 C87.3771598,26.0036867 88.6760503,25.7454257 89.8967136,25.228896 C91.1173769,24.7123662 92.1815286,24.000192 93.0892019,23.092352 C93.9968751,22.1845115 94.7089187,21.1201636 95.2253536,19.8992753 C95.7417855,18.678387 96,17.379257 96,16.0018433 C96,14.6244297 95.7417855,13.3252997 95.2253536,12.1044114 C94.7089187,10.8835231 93.9968751,9.81917524 93.0892019,8.91133468 C92.1815286,8.00349413 91.1173769,7.29131931 89.8967136,6.77478918 C88.6760503,6.25826206 87.3771598,6 86,6 Z M86,25.2054175 C84.7167399,25.2054175 83.5195673,24.9628086 82.4084492,24.4775838 C81.2973341,23.9923591 80.3192518,23.3427935 79.4741784,22.5288679 C78.6604028,21.6836387 78.0109569,20.7053761 77.5258216,19.5940562 C77.0406863,18.4827333 76.7981221,17.28534 76.7981221,16.0018433 C76.7981221,14.7183467 77.0406863,13.5209534 77.5258216,12.4096305 C78.0109569,11.2983106 78.6604028,10.320048 79.4741784,9.47481882 C80.3192518,8.66089228 81.2973341,8.01132881 82.4084492,7.52610136 C83.5195673,7.0408769 84.7167399,6.79826919 86,6.79826919 C87.2832601,6.79826919 88.4804327,7.0408769 89.5915508,7.52610136 C90.7026659,8.01132881 91.6807482,8.66089228 92.5258216,9.47481882 C93.3395981,10.320048 93.9890419,11.2983106 94.4741799,12.4096305 C94.9593149,13.5209534 95.2018779,14.7183467 95.2018779,16.0018433 C95.2018779,17.28534 94.9593149,18.4827333 94.4741799,19.5940562 C93.9890419,20.7053761 93.3395981,21.6836387 92.5258216,22.5288679 C91.6807482,23.3427935 90.7026659,23.9923591 89.5915508,24.4775838 C88.4804327,24.9628086 87.2832601,25.2054175 86,25.2054175 Z M86.4225352,9.99134594 L85.5774648,9.99134594 L85.5774648,15.5792302 L80.0375587,15.5792302 L80.0375587,16.4244564 L85.5774648,16.4244564 L85.5774648,21.9653837 L86.4225352,21.9653837 L86.4225352,16.4244564 L92.0093897,16.4244564 L92.0093897,15.5792302 L86.4225352,15.5792302 L86.4225352,9.99134594 Z" id="Page-1" transform="translate(86.000000, 16.001843) scale(-1, 1) translate(-86.000000, -16.001843) "></path>
            </g>
        </g>
    </g>
</svg>
